<svg xmlns="http://www.w3.org/2000/svg" viewBox="0 0 226.29 37.36"><defs><style>.cls-1{fill:none;}</style></defs><title>Recurso 6</title><g id="Capa_2" data-name="Capa 2"><g id="Capa_1-2" data-name="Capa 1"><path class="cls-1" d="M130.72,36.09q.12-1.8.12-4.35a38.64,38.64,0,0,0-.52-7.12,7.38,7.38,0,0,0-1.73-3.89,3.45,3.45,0,0,0-1.67-1,8.81,8.81,0,0,0-2.16-.24,8.27,8.27,0,0,0-2,.24,3.81,3.81,0,0,0-1.73,1,7.71,7.71,0,0,0-1.67,3.89,38.64,38.64,0,0,0-.52,7.12q0,2.55.12,4.35c0,.45.07.87.12,1.27H130.6C130.65,37,130.69,36.54,130.72,36.09Z"/><path class="cls-1" d="M202.52,37.21V31a6.2,6.2,0,0,1-2.43.82l-2.68.33a7.44,7.44,0,0,0-1.36.46,2.32,2.32,0,0,0-1,.94,5.48,5.48,0,0,0-.57,1.92,17.22,17.22,0,0,0-.16,1.88h8.17S202.52,37.26,202.52,37.21Z"/><path class="cls-1" d="M58.19,22.86a3.73,3.73,0,0,0-.86-1.43,5.38,5.38,0,0,0-1.42-1.06,8.52,8.52,0,0,0-1.77-.67,7.64,7.64,0,0,0-3.92,0,4.48,4.48,0,0,0-1.64,1,7.53,7.53,0,0,0-1.73,4,40.07,40.07,0,0,0-.52,7.17,46.56,46.56,0,0,0,.27,5.44H58.19Z"/><path d="M14.23,23.17h1.15a6.83,6.83,0,0,1,3.13.69,6.57,6.57,0,0,1,2.28,1.89,8.25,8.25,0,0,1,1.37,2.67,10.09,10.09,0,0,1,.46,3c0,.09.18.13.54.13s.55,0,.55-.13V13.68c0-.08-.18-.12-.55-.12s-.54,0-.54.12a10.24,10.24,0,0,1-.46,3.07,7.86,7.86,0,0,1-1.37,2.65A6.71,6.71,0,0,1,15.38,22H14.23V3q0-.24.42-.24h5.48a9.38,9.38,0,0,1,4.71,1.12,10.17,10.17,0,0,1,3.25,2.89A12.25,12.25,0,0,1,30,10.73,15.6,15.6,0,0,1,30.58,15s.2.06.61.06.61,0,.61-.06V1.76q0-.18-.24-.18H.12c-.08,0-.12.2-.12.61s0,.61.12.61H5.35c.24,0,.37.08.37.24V37.36h8.51Z"/><path d="M34.29,29.91c-.36,0-.55,0-.55.13A15.35,15.35,0,0,1,33,34.78a12.49,12.49,0,0,1-1.16,2.58h3V30C34.84,30,34.66,29.91,34.29,29.91Z"/><path d="M64.93,0H54.36c-.09,0-.13.2-.13.61s0,.61.13.61h3.46c.24,0,.37.08.37.24V20.73a7.45,7.45,0,0,0-2.53-1.85,8,8,0,0,0-3.31-.64,11.64,11.64,0,0,0-5.17,1.19,14.5,14.5,0,0,0-4.26,3.13A15.4,15.4,0,0,0,40,26.94a12.3,12.3,0,0,0-1.07,5,13.93,13.93,0,0,0,.91,4.9l.24.54H46.6a46.56,46.56,0,0,1-.27-5.44,40.07,40.07,0,0,1,.52-7.17,7.53,7.53,0,0,1,1.73-4,4.48,4.48,0,0,1,1.64-1,7.64,7.64,0,0,1,3.92,0,8.52,8.52,0,0,1,1.77.67,5.38,5.38,0,0,1,1.42,1.06,3.73,3.73,0,0,1,.86,1.43v14.5h7V.18C65.18.06,65.1,0,64.93,0Z"/><path d="M80,8.88a4,4,0,0,0,3-1.28,4.25,4.25,0,0,0,1.22-3,4.48,4.48,0,0,0-1.22-3.22A4,4,0,0,0,80,.06a4.19,4.19,0,0,0-3.13,1.28,4.42,4.42,0,0,0-1.25,3.22,4.2,4.2,0,0,0,1.25,3A4.19,4.19,0,0,0,80,8.88Z"/><path d="M83.11,18.79H72.41c-.08,0-.12.2-.12.61s0,.6.12.6H76c.28,0,.42.09.42.25V37.36h6.94V19C83.36,18.85,83.27,18.79,83.11,18.79Z"/><path d="M102.2,20h5.23q.12,0,.12-.6c0-.41,0-.61-.12-.61H102.2c-.36,0-.54-.08-.54-.25V8.21c-.65-.08-1-.08-1.1,0a5.44,5.44,0,0,1-.7,1.49,8.51,8.51,0,0,1-1.3,1.58,9.23,9.23,0,0,1-1.74,1.31,4.43,4.43,0,0,1-2,.6v5.35c0,.17-.15.25-.43.25H90c-.08,0-.12.2-.12.61s0,.6.12.6h4.44c.28,0,.43.09.43.25V37.36h6.81V20.25C101.66,20.09,101.84,20,102.2,20Z"/><path d="M138.14,31.74a13.09,13.09,0,0,0-1.07-5.26,13.62,13.62,0,0,0-7.14-7.18,12.93,12.93,0,0,0-5.17-1.06,12.71,12.71,0,0,0-5.14,1.06,13.52,13.52,0,0,0-4.19,2.89,14,14,0,0,0-2.86,4.29,13.58,13.58,0,0,0,0,10.52c.05.12.12.24.18.36H119c-.05-.4-.09-.82-.12-1.27q-.12-1.8-.12-4.35a38.64,38.64,0,0,1,.52-7.12A7.71,7.71,0,0,1,121,20.73a3.81,3.81,0,0,1,1.73-1,8.27,8.27,0,0,1,2-.24,8.81,8.81,0,0,1,2.16.24,3.45,3.45,0,0,1,1.67,1,7.38,7.38,0,0,1,1.73,3.89,38.64,38.64,0,0,1,.52,7.12q0,2.55-.12,4.35c0,.45-.07.87-.12,1.27h6.29c.06-.12.13-.24.18-.36A13.12,13.12,0,0,0,138.14,31.74Z"/><path d="M154.34,23A7.54,7.54,0,0,1,155.4,21a2.49,2.49,0,0,1,1.1-.85,3.21,3.21,0,0,1,1.09-.19,1.77,1.77,0,0,1,1.37.58,2.27,2.27,0,0,1,.52,1.55,2,2,0,0,1-.16.82c-.1.23-.2.44-.3.64s-.2.44-.3.7a2.62,2.62,0,0,0-.16,1,2.38,2.38,0,0,0,.89,1.86,3.76,3.76,0,0,0,2.52.76,3.51,3.51,0,0,0,2.52-1,4.18,4.18,0,0,0,1-3.11,5.1,5.1,0,0,0-.42-2A5.92,5.92,0,0,0,163.85,20a5.77,5.77,0,0,0-1.91-1.3,6.19,6.19,0,0,0-2.52-.49,9,9,0,0,0-1.8.18,4.92,4.92,0,0,0-3.13,2.1A10.42,10.42,0,0,0,153.27,23V19q0-.12-.18-.18H142.27c-.08,0-.12.2-.12.61s0,.6.12.6h3.53c.28,0,.42.09.42.25V37.36h7.05V26.45A27,27,0,0,1,154.34,23Z"/><path d="M176.2,8.88a4,4,0,0,0,3-1.28,4.25,4.25,0,0,0,1.22-3,4.48,4.48,0,0,0-1.22-3.22,4,4,0,0,0-3-1.28,4.21,4.21,0,0,0-3.14,1.28,4.41,4.41,0,0,0-1.24,3.22,4.3,4.3,0,0,0,4.38,4.32Z"/><path d="M179.36,18.79h-10.7c-.09,0-.13.2-.13.61s0,.6.13.6h3.58c.29,0,.43.09.43.25V37.36h6.93V19Q179.6,18.79,179.36,18.79Z"/><path d="M206.56,20.82a11.11,11.11,0,0,0-7.81-2.64,11.78,11.78,0,0,0-3.49.49,10,10,0,0,0-2.77,1.27,7.08,7.08,0,0,0-1.82,1.74,3.14,3.14,0,0,0-.67,1.85,3.42,3.42,0,0,0,.7,2.1,2.63,2.63,0,0,0,2.28.94,3.14,3.14,0,0,0,2.34-.73,2.41,2.41,0,0,0,.7-1.7,2.71,2.71,0,0,0-.25-1.25,2.86,2.86,0,0,1-.24-1.31,2.57,2.57,0,0,1,.27-1.3,1.5,1.5,0,0,1,.73-.64,3.31,3.31,0,0,1,1-.21c.38,0,.78,0,1.18,0a9.12,9.12,0,0,1,1.55.12,2,2,0,0,1,1.19.67,3.82,3.82,0,0,1,.76,1.58,11.81,11.81,0,0,1,.27,2.85v4.63c0,.64-.62,1.07-1.85,1.27s-2.73.39-4.47.55q-1,.12-2.46.42a9.81,9.81,0,0,0-2.92,1.13,7.35,7.35,0,0,0-2.44,2.31,6,6,0,0,0-.88,2.43h6.84a17.22,17.22,0,0,1,.16-1.88,5.48,5.48,0,0,1,.57-1.92,2.32,2.32,0,0,1,1-.94,7.44,7.44,0,0,1,1.36-.46l2.68-.33a6.2,6.2,0,0,0,2.43-.82v6.2s0,.1,0,.15h6.94V29.18C209.45,25.37,208.49,22.59,206.56,20.82Z"/><path d="M226.05,0h-10.7c-.08,0-.12.2-.12.61s0,.61.12.61h3.53q.42,0,.42.24v35.9h7V.18Q226.29,0,226.05,0Z"/></g></g></svg>