<svg xmlns="http://www.w3.org/2000/svg" viewBox="0 0 249.09 37.36"><defs><style>.cls-1{fill:none;}</style></defs><title>Recurso 5</title><g id="Capa_2" data-name="Capa 2"><g id="Capa_1-2" data-name="Capa 1"><path class="cls-1" d="M74.69,23.62a7.31,7.31,0,0,0-1.49-2.89,3.11,3.11,0,0,0-1.49-1,6.53,6.53,0,0,0-1.85-.24,8.81,8.81,0,0,0-2.16.24,3.4,3.4,0,0,0-1.67,1,6.72,6.72,0,0,0-1.73,2.89,20.2,20.2,0,0,0-.64,5.5H75.27A22.54,22.54,0,0,0,74.69,23.62Z"/><path class="cls-1" d="M41.65,22.86a3.63,3.63,0,0,0-.85-1.43,5.6,5.6,0,0,0-1.43-1.06,8,8,0,0,0-1.77-.67,7.64,7.64,0,0,0-3.92,0,4.48,4.48,0,0,0-1.64,1,7.53,7.53,0,0,0-1.73,4,40.07,40.07,0,0,0-.52,7.17,44.24,44.24,0,0,0,.28,5.44H41.65Z"/><path class="cls-1" d="M179.54,22.86a3.63,3.63,0,0,0-.85-1.43,5.43,5.43,0,0,0-1.43-1.06,8.1,8.1,0,0,0-1.76-.67,7.32,7.32,0,0,0-1.8-.24,7.17,7.17,0,0,0-2.13.27,4.57,4.57,0,0,0-1.64,1,7.53,7.53,0,0,0-1.73,4,41,41,0,0,0-.52,7.17,46.32,46.32,0,0,0,.28,5.44h11.58Z"/><path class="cls-1" d="M209,37.21V31a6.36,6.36,0,0,1-2.44.82l-2.67.33a7.56,7.56,0,0,0-1.37.46,2.3,2.3,0,0,0-1,.94,5.26,5.26,0,0,0-.58,1.92c-.07.51-.12,1.15-.15,1.88H209S209,37.26,209,37.21Z"/><path class="cls-1" d="M241.25,21.43a5.43,5.43,0,0,0-1.43-1.06,7.91,7.91,0,0,0-1.76-.67,7.32,7.32,0,0,0-1.8-.24,7.05,7.05,0,0,0-2.12.27,4.4,4.4,0,0,0-1.64,1,7.53,7.53,0,0,0-1.74,4,41.16,41.16,0,0,0-.51,7.17,46.56,46.56,0,0,0,.27,5.44H242.1V22.86A3.52,3.52,0,0,0,241.25,21.43Z"/><path class="cls-1" d="M106.43,21a2.91,2.91,0,0,0-2.59-1.49,6.68,6.68,0,0,0-4.52,1.43,9.93,9.93,0,0,0-2.71,4.59V37.36h10.76V25.66A9,9,0,0,0,106.43,21Z"/><path d="M14.59,2.8h5.23c.08,0,.12-.21.12-.61s0-.61-.12-.61H.12c-.08,0-.12.2-.12.61s0,.61.12.61H5.35q.3,0,.3.24V37.36h8.58V3Q14.23,2.8,14.59,2.8Z"/><path d="M48.4,0H37.82c-.08,0-.12.2-.12.61s0,.61.12.61h3.46c.25,0,.37.08.37.24V20.73a7.35,7.35,0,0,0-2.53-1.85,8,8,0,0,0-3.31-.64,11.67,11.67,0,0,0-5.17,1.19,14.33,14.33,0,0,0-4.25,3.13,15.31,15.31,0,0,0-2.89,4.37,12.38,12.38,0,0,0-1.07,5,13.63,13.63,0,0,0,.92,4.89c.07.19.15.37.23.55h6.49a44.24,44.24,0,0,1-.28-5.44,40.07,40.07,0,0,1,.52-7.17,7.53,7.53,0,0,1,1.73-4,4.48,4.48,0,0,1,1.64-1,7.64,7.64,0,0,1,3.92,0,8,8,0,0,1,1.77.67,5.6,5.6,0,0,1,1.43,1.06,3.63,3.63,0,0,1,.85,1.43v14.5h7V.18Q48.64,0,48.4,0Z"/><path d="M63.66,31.74v-1.4H81.47a.16.16,0,0,0,.18-.18,11.06,11.06,0,0,0-.73-3.65,13.07,13.07,0,0,0-2.18-3.89,12.86,12.86,0,0,0-3.68-3.1,10.28,10.28,0,0,0-5.2-1.28,13.1,13.1,0,0,0-5.2,1.06,14.23,14.23,0,0,0-4.32,2.89,14,14,0,0,0-3,4.29,13.24,13.24,0,0,0,0,10.52l.19.36H63.9c0-.4-.09-.82-.12-1.27Q63.66,34.29,63.66,31.74Zm.64-8.12A6.72,6.72,0,0,1,66,20.73a3.4,3.4,0,0,1,1.67-1,8.81,8.81,0,0,1,2.16-.24,6.53,6.53,0,0,1,1.85.24,3.11,3.11,0,0,1,1.49,1,7.31,7.31,0,0,1,1.49,2.89,22.54,22.54,0,0,1,.58,5.5H63.66A20.2,20.2,0,0,1,64.3,23.62Z"/><path d="M111.57,20.89c-1.87-1.77-4.44-2.65-7.73-2.65a9.1,9.1,0,0,0-2.18.27,8.85,8.85,0,0,0-2.07.82,6.75,6.75,0,0,0-1.76,1.46A6.31,6.31,0,0,0,96.61,23V19a.16.16,0,0,0-.18-.18H85.73c-.09,0-.13.2-.13.61s0,.6.13.6h3.46c.33,0,.49.08.49.25V37.36h6.93V25.48a9.93,9.93,0,0,1,2.71-4.59,6.68,6.68,0,0,1,4.52-1.43A2.91,2.91,0,0,1,106.43,21a9,9,0,0,1,.94,4.71v11.7h7v-9Q114.36,23.53,111.57,20.89Z"/><path d="M132.36,20h5.23q.12,0,.12-.6c0-.41,0-.61-.12-.61h-5.23c-.37,0-.55-.08-.55-.25V8.21c-.65-.08-1-.08-1.09,0A5.91,5.91,0,0,1,130,9.7a8.58,8.58,0,0,1-1.31,1.58A9.16,9.16,0,0,1,127,12.59a4.47,4.47,0,0,1-2,.6v5.35c0,.17-.14.25-.42.25h-4.44c-.08,0-.12.2-.12.61s0,.6.12.6h4.44c.28,0,.42.08.42.25V37.36h6.81V20.25C131.81,20.08,132,20,132.36,20Z"/><path d="M148.78,8.88a4,4,0,0,0,3-1.28,4.21,4.21,0,0,0,1.22-3,4.44,4.44,0,0,0-1.22-3.22,4,4,0,0,0-3-1.28,4.21,4.21,0,0,0-3.14,1.28,4.41,4.41,0,0,0-1.24,3.22,4.3,4.3,0,0,0,4.38,4.32Z"/><path d="M151.94,18.79h-10.7c-.09,0-.13.2-.13.61s0,.6.13.6h3.58c.29,0,.43.08.43.25V37.36h6.93V19Q152.18,18.79,151.94,18.79Z"/><path d="M186.29,0H175.71c-.08,0-.12.2-.12.61s0,.61.12.61h3.46c.25,0,.37.08.37.24V20.73A7.41,7.41,0,0,0,177,18.88a8,8,0,0,0-3.32-.64,11.7,11.7,0,0,0-5.17,1.19,14.33,14.33,0,0,0-4.25,3.13,15.31,15.31,0,0,0-2.89,4.37,12.37,12.37,0,0,0-1.06,5,13.62,13.62,0,0,0,.91,4.89c.07.19.16.37.23.55H168a46.32,46.32,0,0,1-.28-5.44,41,41,0,0,1,.52-7.17,7.53,7.53,0,0,1,1.73-4,4.57,4.57,0,0,1,1.64-1,7.17,7.17,0,0,1,2.13-.27,7.32,7.32,0,0,1,1.8.24,8.1,8.1,0,0,1,1.76.67,5.43,5.43,0,0,1,1.43,1.06,3.63,3.63,0,0,1,.85,1.43v14.5h7V.18Q186.53,0,186.29,0Z"/><path d="M213,20.82a11.14,11.14,0,0,0-7.81-2.64,11.84,11.84,0,0,0-3.5.49,10.12,10.12,0,0,0-2.77,1.27,7.24,7.24,0,0,0-1.82,1.74,3.14,3.14,0,0,0-.67,1.85,3.42,3.42,0,0,0,.7,2.1,2.66,2.66,0,0,0,2.28.94,3.11,3.11,0,0,0,2.34-.73,2.37,2.37,0,0,0,.7-1.7,2.72,2.72,0,0,0-.24-1.25,2.84,2.84,0,0,1-.25-1.31,2.56,2.56,0,0,1,.28-1.3,1.42,1.42,0,0,1,.73-.64,3.25,3.25,0,0,1,1-.21c.39,0,.78,0,1.19,0a9.29,9.29,0,0,1,1.55.12,2,2,0,0,1,1.18.67,3.7,3.7,0,0,1,.76,1.58,11.25,11.25,0,0,1,.28,2.85v4.62c0,.65-.62,1.08-1.86,1.28s-2.72.39-4.47.55q-1,.12-2.46.42a9.91,9.91,0,0,0-2.92,1.13,7.41,7.41,0,0,0-2.43,2.31,5.87,5.87,0,0,0-.88,2.43h6.84c0-.73.08-1.37.15-1.88a5.26,5.26,0,0,1,.58-1.92,2.3,2.3,0,0,1,1-.94,7.56,7.56,0,0,1,1.37-.46l2.67-.33A6.36,6.36,0,0,0,209,31v6.2s0,.1,0,.15h6.94V29.18C215.9,25.37,214.93,22.59,213,20.82Z"/><path d="M230.25,31.92a41.16,41.16,0,0,1,.51-7.17,7.53,7.53,0,0,1,1.74-4,4.4,4.4,0,0,1,1.64-1,7.05,7.05,0,0,1,2.12-.27,7.32,7.32,0,0,1,1.8.24,7.91,7.91,0,0,1,1.76.67,5.43,5.43,0,0,1,1.43,1.06,3.52,3.52,0,0,1,.85,1.43v14.5h7V.18q0-.18-.24-.18H238.27c-.08,0-.12.2-.12.61s0,.61.12.61h3.47q.36,0,.36.24V20.73a7.41,7.41,0,0,0-2.52-1.85,8,8,0,0,0-3.32-.64,11.63,11.63,0,0,0-5.16,1.19,14.5,14.5,0,0,0-4.26,3.13A15.31,15.31,0,0,0,224,26.93a12.37,12.37,0,0,0-1.06,5,13.62,13.62,0,0,0,.91,4.89c.07.19.16.37.24.55h6.48A46.56,46.56,0,0,1,230.25,31.92Z"/></g></g></svg>