<svg xmlns="http://www.w3.org/2000/svg" viewBox="0 0 438.177 432.38"><defs><style>.cls-1{fill:#254b83;opacity:0.39;}.cls-2{fill:none;stroke:#f3839c;stroke-miterlimit:10;stroke-width:2px;}</style></defs><g id="Layer_2" data-name="Layer 2"><g id="Layer_1-2" data-name="Layer 1"><path class="cls-1" d="M22.339,131.781C33.145,86.269,77.041,60.7,95.925,49.7c58.622-34.144,177.558-64.34,262.269,13.207C439.124,137,446.038,270.26,374.232,351.6c-88.109,99.8-252.6,73.681-298.118,11.321-13.761-18.851,2.83-76.417-30.19-116.983C.261,189.833,15.625,160.059,22.339,131.781Z"/><path class="cls-2" d="M9.495,126.27c11.511-48.482,58.273-75.718,78.39-87.435C150.333,2.463,277.034-29.7,367.275,52.905c86.213,78.922,93.579,220.885,17.085,307.53C290.5,466.753,115.273,438.927,66.78,372.5,52.121,352.413,69.8,291.09,34.62,247.875-14.024,188.112,2.342,156.4,9.495,126.27Z"/></g></g></svg>